<svg id="Design" xmlns="http://www.w3.org/2000/svg" width="100%" height="100%" version="1.1" viewBox="0 0 621 98">
  <defs>
    <style>
      .gd-pt-blue0 {
        fill: #164787;
      }

      .gd-pt-blue1 {
        fill: #164787;
      }

      .gd-pt-yellow {
        fill: #FFED00;
      }
    </style>
  </defs>
  <g>
    <path class="gd-pt-blue0" d="M65.95,59.63c3.14-7.42,7.63-14.07,13.34-19.79,5-5,10.73-9.07,17.05-12.11-4.02-.83-8.19-1.27-12.46-1.27-30.31,0-55.48,22-60.41,50.9h37.92c.63-6.11,2.16-12.05,4.56-17.73h0Z"></path>
    <path class="gd-pt-yellow" d="M123.33,26.46c-29.51,0-53.81,22.26-57.04,50.9h35.17c2.58-12.55,13.61-22.02,26.89-22.21l8.71-27.04c-4.4-1.08-9-1.66-13.74-1.66h0Z"></path>
  </g>
  <polygon class="gd-pt-blue0" points="212.51 27.3 224.9 27.3 224.9 66.78 248.67 66.78 245.18 76.51 212.51 76.51 212.51 27.3"></polygon>
  <path class="gd-pt-blue0" d="M274.64,37.46h-.13l-6,19.25h11.66l-5.53-19.25ZM267.04,27.3h15.19l17.92,49.21h-13.59l-3.47-10.51h-17.46l-3.67,10.51h-12.59l17.66-49.21h0Z"></path>
  <path class="gd-pt-blue0" d="M305.16,64.39c3.2,1.83,7.66,3.24,12.79,3.24,3.93,0,7.66-.85,7.66-4.79,0-9.16-21.99-3.38-21.99-21.29,0-11.84,10.93-15.08,20.26-15.08,4.46,0,8.86.7,11.99,1.83l-.8,10.15c-3.2-1.55-6.8-2.26-10.33-2.26-3.13,0-8.33.28-8.33,4.58,0,7.97,21.99,2.61,21.99,20.38,0,12.76-10.13,16.22-20.46,16.22-4.33,0-9.73-.71-13.86-2.12l1.07-10.86h0Z"></path>
  <path class="gd-pt-blue0" d="M345.87,64.39c3.2,1.83,7.66,3.24,12.79,3.24,3.93,0,7.66-.85,7.66-4.79,0-9.16-21.99-3.38-21.99-21.29,0-11.84,10.93-15.08,20.26-15.08,4.47,0,8.86.7,11.99,1.83l-.8,10.15c-3.2-1.55-6.8-2.26-10.33-2.26-3.13,0-8.33.28-8.33,4.58,0,7.97,21.99,2.61,21.99,20.38,0,12.76-10.13,16.22-20.45,16.22-4.33,0-9.73-.71-13.86-2.12l1.07-10.86h0Z"></path>
  <path class="gd-pt-blue0" d="M398.84,66.78h4.8c9.26,0,14.46-5.07,14.46-14.87s-5.4-14.88-14.46-14.88h-4.8v29.75ZM386.45,27.3h16.92c16.19,0,27.52,5.36,27.52,24.39s-11.66,24.82-27.52,24.82h-16.92V27.3h0Z"></path>
  <rect class="gd-pt-blue0" x="487.46" y="27.3" width="12.39" height="49.21"></rect>
  <polygon class="gd-pt-blue0" points="505.45 27.3 518.64 27.3 528.97 65.94 529.1 65.94 539.49 27.3 552.22 27.3 536.36 76.51 521.04 76.51 505.45 27.3"></polygon>
  <polygon class="gd-pt-blue0" points="556.88 27.3 590.4 27.3 590.4 36.61 569.28 36.61 569.28 46.76 588.53 46.76 588.53 56.07 569.28 56.07 569.28 67.21 590.4 67.21 590.4 76.51 556.88 76.51 556.88 27.3"></polygon>
  <path class="gd-pt-blue0" d="M188.86,26.46c-17.06,0-29.39,7.12-29.39,25.66s14.33,25.24,26.72,25.24c4.26,0,10.13-.14,17.99-2.26v-23.2h-11.99v14.88c-1.13.56-2.73.85-4.4.85-9.06,0-15.53-5.85-15.53-15.51,0-11.49,8.26-15.93,18.32-15.93,7.39,0,13.59,3.5,13.59,3.5v-10.91s-5.36-2.32-15.33-2.32h0Z"></path>
  <path class="gd-pt-blue0" d="M469.19,59.08c6.34-2.7,9.81-8.04,9.81-15.14v-.14c0-4.66-1.49-8.62-4.31-11.44-3.31-3.31-8.3-5.06-14.44-5.06h-22.91v49.21h12.37v-15.26h7.07l10.22,15.26h14.12l-11.93-17.44h0ZM449.72,38.3h9.65c2.79,0,7.48.79,7.48,6.04v.14c0,3.74-2.72,5.98-7.27,5.98h-9.86v-12.16h0Z"></path>
  <g>
    <path class="gd-pt-blue1" d="M604.04,30.07c-.24-.57-.57-1.06-.98-1.48-.42-.42-.91-.75-1.48-.98-.57-.24-1.19-.36-1.85-.36s-1.28.12-1.85.36c-.57.24-1.07.57-1.49.98s-.75.91-.99,1.48c-.24.57-.36,1.19-.36,1.85s.12,1.27.36,1.84c.24.57.57,1.07.99,1.5.42.42.92.75,1.5.99.57.24,1.19.36,1.84.36s1.28-.12,1.85-.36c.57-.24,1.06-.57,1.48-.99.42-.42.75-.92.98-1.5.24-.57.36-1.19.36-1.84s-.12-1.28-.36-1.85h0ZM603.48,33.53c-.2.5-.49.93-.86,1.3-.37.37-.8.66-1.29.87-.49.21-1.03.31-1.61.31s-1.12-.1-1.61-.31c-.5-.21-.93-.5-1.29-.87s-.65-.81-.85-1.3c-.2-.5-.3-1.03-.3-1.61s.1-1.12.3-1.61c.2-.5.49-.93.85-1.3s.8-.65,1.29-.86c.5-.21,1.03-.31,1.61-.31s1.11.1,1.61.31c.49.21.92.49,1.29.86s.65.8.86,1.3c.2.5.3,1.03.3,1.61s-.1,1.12-.3,1.61Z"></path>
    <path class="gd-pt-blue1" d="M600.97,32.36c-.07-.05-.15-.08-.24-.11.29-.06.53-.17.72-.33.31-.26.47-.64.47-1.13s-.16-.88-.47-1.17c-.32-.29-.77-.43-1.35-.43h-2.27v5.46h.96v-2.2h.74c.22,0,.4.04.55.11.15.07.27.21.34.42l.6,1.67h.97l-.58-1.62c-.1-.33-.25-.55-.43-.67h0ZM599.96,31.71h-1.19v-1.79h1.19c.35,0,.62.07.79.22.17.15.26.37.26.67s-.09.53-.26.67c-.17.15-.44.22-.79.22h0Z"></path>
  </g>
</svg>